# xmcd
#
# Track frame offsets: 
#        150
#        9702
#        20163
#        29371
#        39234
#        59888
#        78232
#        100495
#        115193
#        129421
#        152050
#        160453
#        175267
#
# Disc length: 2594 seconds
#
# Revision: 0
# Processed by: cddbd v1.5.2PL0 Copyright (c) Steve Scherf et al.
# Submitted via: ExactAudioCopy v0.99pb5
#
DISCID=aa0a200d
DTITLE=Tim Elliott and The Troublemakers - Bed Slats 'n' All
DYEAR=2001
DGENRE=Blues
TTITLE0=The Celebrated Tommy Ellis Boogie
TTITLE1=Honest I Do
TTITLE2=Suck My Harpoon
TTITLE3=How Can You Can Moving
TTITLE4=Hard Work Ain't Easy
TTITLE5=Going To The River
TTITLE6=Love In Vain
TTITLE7=Rich Woman
TTITLE8=Sloppy Drunk
TTITLE9=The Story Of My Life
TTITLE10=Sure Tastes Good To Me
TTITLE11=Barkin'
TTITLE12=Lying In The Woods
EXTD=
EXTT0=
EXTT1=
EXTT2=
EXTT3=
EXTT4=
EXTT5=
EXTT6=
EXTT7=
EXTT8=
EXTT9=
EXTT10=
EXTT11=
EXTT12=
PLAYORDER=
